<svg width="64" height="64" viewBox="0 0 64 64" fill="none" xmlns="http://www.w3.org/2000/svg">
<path d="M25 30.7871V35.9092L29.4404 38.4092V40.7041L23 37.0791V29.6211L25 30.7871Z" fill="#9EC0BE"/>
<path d="M41 37.0898L34.8008 40.5742V38.2793L38.999 35.9199L38.9951 30.998L40.9951 29.832L41 37.0898Z" fill="#9EC0BE"/>
<path d="M38.0869 25.2842L36.1172 26.4697L31.9912 24.1475L28.0459 26.3711L26.0781 25.1846L31.9902 21.8525L38.0869 25.2842Z" fill="#9EC0BE"/>
<path d="M44.1777 11.1338L44.6777 11.4229V24.665L51.2041 28.4346L50.2041 30.167L43.7754 26.4551L33.2588 32.5264L33.251 44.6553L43.7588 50.7119L54.2754 44.6406V37.2188L56.2754 37.2178V45.7949L43.7578 53.0215L43.2588 52.7334L32.2197 46.3682L21.1807 52.7334L20.6816 53.0215L8.16406 45.7949V37.2178L10.1641 37.2188V44.6406L20.6807 50.7119L31.1885 44.6553L31.1807 32.5264L20.6641 26.4551L14.2354 30.167L13.2354 28.4346L19.6787 24.7129V11.4229L20.1787 11.1338L27.1064 7.13379L28.1064 8.86621L21.6787 12.5771V24.7207L32.1777 30.792L42.6777 24.7207V12.5771L36.249 8.86621L37.249 7.13379L44.1777 11.1338Z" fill="#9EC0BE"/>
</svg>
