<svg width="120" height="120" viewBox="0 0 120 120" fill="none" xmlns="http://www.w3.org/2000/svg">
<path d="M60.8408 19.2128L24.2271 39.2619L24.2271 80.2419L60.8408 102.245L97.2272 80.2419L97.2272 44.5347L85.6604 44.5347L90.8396 22.3263L81.0207 28.2248L57.9601 41.5388L50.5069 54.9332L53.1436 64.1975L60.1048 59.8191M55.464 72.7056L66.3025 66.0798L66.3025 59.8191L74.765 54.9332L85.6604 59.8191L85.6604 76.4722L60.8408 90.8829L29.0177 77.0619L29.0177 37.4628" stroke="#9EC0BE" stroke-width="3"/>
<path d="M62.3002 16.8573C61.3966 17.2858 60.493 17.7142 59.5895 18.1427C59.6518 18.2375 59.714 18.3324 59.7763 18.4272C60.8969 20.1339 62.0175 21.8407 63.1382 23.5475C63.2004 23.6423 63.2627 23.7371 63.325 23.8319C63.6638 23.6712 64.0026 23.5106 64.3415 23.3499C64.3074 23.2417 64.2734 23.1335 64.2394 23.0253C63.627 21.0775 63.0146 19.1297 62.4022 17.1819C62.3682 17.0737 62.3342 16.9655 62.3002 16.8573Z" fill="#9EC0BE"/>
<path d="M27.9736 36.094C28.9736 36.094 29.9736 36.094 30.9736 36.094C30.958 35.9838 30.9424 35.8735 30.9268 35.7632C30.6455 33.7786 30.3643 31.7939 30.083 29.8092C30.0674 29.6989 30.0518 29.5887 30.0361 29.4784C29.6611 29.4784 29.2861 29.4784 28.9111 29.4784C28.8955 29.5887 28.8799 29.6989 28.8643 29.8092C28.583 31.7939 28.3018 33.7786 28.0205 35.7632C28.0049 35.8735 27.9893 35.9838 27.9736 36.094Z" fill="#9EC0BE"/>
<path d="M98.5212 48.4825C98.0212 49.3485 97.5212 50.2146 97.0212 51.0806C97.1245 51.1222 97.2278 51.1638 97.3311 51.2054C99.1905 51.9541 101.05 52.7029 102.909 53.4517C103.013 53.4933 103.116 53.5349 103.219 53.5765C103.407 53.2517 103.594 52.927 103.782 52.6022C103.694 52.5336 103.606 52.4649 103.519 52.3962C101.941 51.1603 100.362 49.9244 98.7842 48.6885C98.6965 48.6198 98.6089 48.5512 98.5212 48.4825Z" fill="#9EC0BE"/>
<path d="M33.6782 32.4441C34.6782 32.4441 35.6782 32.4441 36.6782 32.4441C36.6626 32.3529 36.647 32.2616 36.6313 32.1704C36.3501 30.5279 36.0688 28.8854 35.7876 27.2429C35.772 27.1516 35.7563 27.0604 35.7407 26.9691C35.3657 26.9691 34.9907 26.9691 34.6157 26.9691C34.6001 27.0604 34.5845 27.1516 34.5688 27.2429C34.2876 28.8854 34.0063 30.5279 33.7251 32.1704C33.7095 32.2616 33.6938 32.3529 33.6782 32.4441Z" fill="#9EC0BE"/>
<path d="M33.9878 33.7642C34.9878 33.7642 35.9878 33.7642 36.9878 33.7642C36.9722 33.8555 36.9565 33.9467 36.9409 34.038C36.6597 35.6805 36.3784 37.323 36.0972 38.9655C36.0815 39.0568 36.0659 39.148 36.0503 39.2393C35.6753 39.2393 35.3003 39.2393 34.9253 39.2393C34.9097 39.148 34.894 39.0568 34.8784 38.9655C34.5972 37.323 34.3159 35.6805 34.0347 34.038C34.019 33.9467 34.0034 33.8555 33.9878 33.7642Z" fill="#9EC0BE"/>
<path d="M98.8313 55.2467C98.3313 56.1127 97.8313 56.9787 97.3313 57.8447C97.4181 57.8768 97.5049 57.9089 97.5918 57.941C99.1548 58.5187 100.718 59.0964 102.281 59.6741C102.368 59.7062 102.455 59.7382 102.542 59.7703C102.729 59.4456 102.917 59.1208 103.104 58.7961C103.033 58.7369 102.962 58.6778 102.89 58.6186C101.609 57.5538 100.327 56.489 99.0449 55.4241C98.9737 55.365 98.9025 55.3058 98.8313 55.2467Z" fill="#9EC0BE"/>
<path d="M39.6089 29.4784C40.6089 29.4784 41.6089 29.4784 42.6089 29.4784C42.5933 29.4024 42.5776 29.3263 42.562 29.2503C42.2808 27.8815 41.9995 26.5128 41.7183 25.144C41.7026 25.068 41.687 24.9919 41.6714 24.9159C41.2964 24.9159 40.9214 24.9159 40.5464 24.9159C40.5308 24.9919 40.5151 25.068 40.4995 25.144C40.2183 26.5128 39.937 27.8815 39.6558 29.2503C39.6401 29.3263 39.6245 29.4024 39.6089 29.4784Z" fill="#9EC0BE"/>
<path d="M39.4238 30.0172C40.4238 30.0172 41.4238 30.0172 42.4238 30.0172C42.4082 30.0932 42.3926 30.1693 42.377 30.2453C42.0957 31.6141 41.8145 32.9828 41.5332 34.3516C41.5176 34.4276 41.502 34.5037 41.4863 34.5797C41.1113 34.5797 40.7363 34.5797 40.3613 34.5797C40.3457 34.5037 40.3301 34.4276 40.3145 34.3516C40.0332 32.9828 39.752 31.6141 39.4707 30.2453C39.4551 30.1693 39.4395 30.0932 39.4238 30.0172Z" fill="#9EC0BE"/>
<path d="M98.434 61.8662C97.934 62.7323 97.434 63.5983 96.934 64.4643C97.0077 64.4888 97.0813 64.5133 97.155 64.5378C98.481 64.9786 99.807 65.4194 101.133 65.8602C101.207 65.8847 101.28 65.9092 101.354 65.9337C101.542 65.6089 101.729 65.2842 101.917 64.9594C101.858 64.9078 101.8 64.8563 101.742 64.8047C100.698 63.8768 99.6529 62.9488 98.6081 62.0209C98.5501 61.9693 98.492 61.9178 98.434 61.8662Z" fill="#9EC0BE"/>
<path d="M45.5391 26.5C46.5391 26.5 47.5391 26.5 48.5391 26.5C48.5234 26.4318 48.5078 26.3635 48.4922 26.2953C48.2109 25.0673 47.9297 23.8392 47.6484 22.6112C47.6328 22.5429 47.6172 22.4747 47.6016 22.4065C47.2266 22.4065 46.8516 22.4065 46.4766 22.4065C46.4609 22.4747 46.4453 22.5429 46.4297 22.6112C46.1484 23.8392 45.8672 25.0673 45.5859 26.2953C45.5703 26.3635 45.5547 26.4318 45.5391 26.5Z" fill="#9EC0BE"/>
<path d="M45.6367 27.5031C46.6367 27.5031 47.6367 27.5031 48.6367 27.5031C48.6211 27.5564 48.6055 27.6096 48.5898 27.6628C48.3086 28.621 48.0273 29.5791 47.7461 30.5372C47.7305 30.5904 47.7148 30.6437 47.6992 30.6969C47.3242 30.6969 46.9492 30.6969 46.5742 30.6969C46.5586 30.6437 46.543 30.5904 46.5273 30.5372C46.2461 29.5791 45.9648 28.621 45.6836 27.6628C45.668 27.6096 45.6523 27.5564 45.6367 27.5031Z" fill="#9EC0BE"/>
<path d="M98.8269 68.9417C98.3269 69.8078 97.8269 70.6738 97.3269 71.5398C97.3808 71.5529 97.4347 71.566 97.4886 71.5791C98.459 71.8145 99.4294 72.05 100.4 72.2855C100.454 72.2986 100.508 72.3117 100.562 72.3248C100.749 72 100.937 71.6753 101.124 71.3505C101.086 71.3104 101.047 71.2702 101.009 71.2301C100.32 70.5074 99.6309 69.7848 98.9418 69.0622C98.9035 69.022 98.8652 68.9819 98.8269 68.9417Z" fill="#9EC0BE"/>
<path d="M51.4707 23.3191C52.4707 23.3191 53.4707 23.3191 54.4707 23.3191C54.4551 23.2582 54.4395 23.1974 54.4238 23.1366C54.1426 22.0416 53.8613 20.9466 53.5801 19.8516C53.5645 19.7907 53.5488 19.7299 53.5332 19.6691C53.1582 19.6691 52.7832 19.6691 52.4082 19.6691C52.3926 19.7299 52.377 19.7907 52.3613 19.8516C52.0801 20.9466 51.7988 22.0416 51.5176 23.1366C51.502 23.1974 51.4863 23.2582 51.4707 23.3191Z" fill="#9EC0BE"/>
<path d="M51.8491 23.9403C52.8491 23.9403 53.8491 23.9403 54.8491 23.9403C54.8335 24.0012 54.8179 24.062 54.8022 24.1228C54.521 25.2178 54.2397 26.3128 53.9585 27.4078C53.9429 27.4687 53.9272 27.5295 53.9116 27.5903C53.5366 27.5903 53.1616 27.5903 52.7866 27.5903C52.771 27.5295 52.7554 27.4687 52.7397 27.4078C52.4585 26.3128 52.1772 25.2178 51.896 24.1228C51.8804 24.062 51.8647 24.0012 51.8491 23.9403Z" fill="#9EC0BE"/>
<path d="M56.2831 62.831C55.3646 63.2265 54.4461 63.622 53.5277 64.0175C53.5642 64.0629 53.6008 64.1083 53.6373 64.1536C54.2953 64.9705 54.9532 65.7873 55.6112 66.6042C55.6477 66.6495 55.6843 66.6949 55.7208 66.7403C56.0653 66.592 56.4097 66.4437 56.7541 66.2954C56.7463 66.2376 56.7384 66.1799 56.7306 66.1221C56.5892 65.0828 56.4479 64.0435 56.3066 63.0042C56.2988 62.9465 56.2909 62.8888 56.2831 62.831Z" fill="#9EC0BE"/>
<path d="M59.5851 70.3714C60.4474 69.865 61.3097 69.3586 62.172 68.8523C62.1287 68.8093 62.0854 68.7664 62.042 68.7235C61.262 67.9506 60.482 67.1777 59.702 66.4048C59.6586 66.3618 59.6153 66.3189 59.572 66.276C59.2486 66.4658 58.9252 66.6557 58.6019 66.8456C58.6183 66.9044 58.6346 66.9632 58.651 67.0219C58.946 68.0796 59.241 69.1374 59.5359 70.1951C59.5523 70.2539 59.5687 70.3126 59.5851 70.3714Z" fill="#9EC0BE"/>
<path d="M55.2711 72.148C56.0069 71.4708 56.7428 70.7936 57.4786 70.1164C57.4261 70.0825 57.3737 70.0486 57.3212 70.0147C56.3769 69.4039 55.4326 68.7931 54.4883 68.1823C54.4358 68.1484 54.3834 68.1145 54.3309 68.0805C54.055 68.3345 53.779 68.5884 53.5031 68.8423C53.5326 68.8974 53.562 68.9525 53.5915 69.0076C54.1219 69.9993 54.6523 70.991 55.1827 71.9827C55.2122 72.0378 55.2416 72.0929 55.2711 72.148Z" fill="#9EC0BE"/>
<path d="M60.1516 59.6269C59.2682 60.0956 58.3848 60.5642 57.5014 61.0328C57.5494 61.09 57.5974 61.1471 57.6454 61.2042C58.5094 62.2327 59.3733 63.2612 60.2373 64.2896C60.2853 64.3468 60.3333 64.4039 60.3813 64.461C60.7126 64.2853 61.0438 64.1096 61.3751 63.9338C61.3547 63.862 61.3343 63.7903 61.3139 63.7185C60.9469 62.4264 60.5798 61.1343 60.2128 59.8423C60.1924 59.7705 60.172 59.6987 60.1516 59.6269Z" fill="#9EC0BE"/>
</svg>
