<svg width="120" height="120" viewBox="0 0 120 120" fill="none" xmlns="http://www.w3.org/2000/svg">
<path d="M59.8779 40.6515V74.1436" stroke="#9EC0BE" stroke-width="3"/>
<path d="M59.8781 73.6969L54.0728 77.0648V81.9396L59.8781 85.3075" stroke="#9EC0BE" stroke-width="3"/>
<path d="M59.8778 73.6969L65.6831 77.0648V81.9396L59.8778 85.3075" stroke="#9EC0BE" stroke-width="3"/>
<path d="M59.8766 55.1017C59.8766 54.1017 59.8765 53.1017 59.8765 52.1017C59.4644 52.1017 59.0522 52.1017 58.64 52.1017C56.7902 52.1017 54.9403 52.1017 53.0904 52.1017L54.0307 52.433C51.9759 50.7801 49.9212 49.1272 47.8665 47.4743L48.4263 48.643C48.4263 46.3927 48.4263 44.1424 48.4263 41.8921L47.9869 42.9527C47.9869 42.9527 47.9869 42.9527 47.9869 42.9527C48.4691 42.4705 48.8826 41.9197 49.2275 41.3002C49.4359 40.9257 49.6192 40.5261 49.7775 40.1015C49.4239 39.7479 49.0704 39.3944 48.7168 39.0408C48.2922 39.1991 47.8926 39.3824 47.5182 39.5909C46.8986 39.9357 46.3478 40.3492 45.8656 40.8314C45.8656 40.8314 45.8656 40.8314 45.8656 40.8314L45.4263 41.2707V41.8921C45.4263 44.1424 45.4263 46.3927 45.4263 48.643V49.3615L45.9861 49.8118C48.0408 51.4647 50.0955 53.1176 52.1502 54.7705L52.562 55.1017L53.0905 55.1017C54.9403 55.1017 56.7902 55.1017 58.64 55.1017C59.0522 55.1017 59.4644 55.1017 59.8766 55.1017Z" fill="#9EC0BE"/>
<path d="M59.9652 55.1017C59.9652 54.1017 59.9652 53.1017 59.9653 52.1017C60.3774 52.1017 60.7896 52.1017 61.2018 52.1017C63.0516 52.1017 64.9015 52.1017 66.7514 52.1017L65.8111 52.433C67.8659 50.7801 69.9206 49.1272 71.9753 47.4743L71.4155 48.643C71.4155 46.3927 71.4155 44.1424 71.4155 41.8921L71.8549 42.9527C71.8549 42.9527 71.8549 42.9527 71.8549 42.9527C71.3727 42.4705 70.9592 41.9197 70.6143 41.3002C70.4059 40.9257 70.2226 40.5261 70.0643 40.1015C70.4179 39.7479 70.7714 39.3944 71.125 39.0408C71.5496 39.1991 71.9492 39.3824 72.3236 39.5909C72.9432 39.9357 73.494 40.3492 73.9762 40.8314C73.9762 40.8314 73.9762 40.8314 73.9762 40.8314L74.4155 41.2707V41.8921C74.4155 44.1424 74.4155 46.3927 74.4155 48.643V49.3615L73.8557 49.8118C71.801 51.4647 69.7463 53.1176 67.6916 54.7705L67.2798 55.1017L66.7513 55.1017C64.9015 55.1017 63.0516 55.1017 61.2018 55.1017C60.7896 55.1017 60.3774 55.1017 59.9652 55.1017Z" fill="#9EC0BE"/>
<path d="M59.8778 61.8002C59.8778 60.8002 59.8778 59.8002 59.8778 58.8002C59.3483 58.8002 58.8189 58.8002 58.2895 58.8002C55.6043 58.8002 52.9191 58.8002 50.2339 58.8002L51.2563 59.2027C48.3229 56.4699 45.3895 53.7371 42.4561 51.0043L42.9336 52.1018C42.9336 49.5644 42.9336 47.027 42.9336 44.4895C42.9336 44.4517 42.933 44.4139 42.932 44.376L42.4931 45.4356C42.6718 45.2467 42.833 45.0404 42.9768 44.8166C43.2697 44.3608 43.4902 43.8326 43.6383 43.232C43.2847 42.8784 42.9312 42.5249 42.5776 42.1713C41.977 42.3194 41.4487 42.5398 40.9929 42.8327C40.7692 42.9765 40.5629 43.1378 40.374 43.3165L39.9191 43.7972L39.9351 44.376C39.9341 44.4139 39.9336 44.4517 39.9336 44.4895C39.9336 47.027 39.9336 49.5644 39.9336 52.1018L39.9336 52.7544L40.4111 53.1993C43.3445 55.9321 46.278 58.6649 49.2114 61.3978L49.6434 61.8002H50.2339C52.9191 61.8002 55.6043 61.8002 58.2895 61.8002C58.8189 61.8002 59.3483 61.8002 59.8778 61.8002Z" fill="#9EC0BE"/>
<path d="M59.9655 61.8002C59.9655 60.8002 59.9655 59.8002 59.9655 58.8002C60.4949 58.8002 61.0243 58.8002 61.5538 58.8002C64.239 58.8002 66.9242 58.8002 69.6094 58.8002L68.5869 59.2027C71.5204 56.4699 74.4538 53.7371 77.3872 51.0043L76.9097 52.1018C76.9097 49.5644 76.9097 47.027 76.9097 44.4895C76.9097 44.4517 76.9102 44.4139 76.9113 44.376L77.3501 45.4356C77.1715 45.2467 77.0102 45.0404 76.8664 44.8166C76.5735 44.3608 76.353 43.8326 76.205 43.232C76.5585 42.8784 76.9121 42.5249 77.2656 42.1713C77.8663 42.3194 78.3945 42.5398 78.8503 42.8327C79.0741 42.9765 79.2804 43.1378 79.4692 43.3165L79.9241 43.7972L79.9081 44.376C79.9092 44.4139 79.9097 44.4517 79.9097 44.4895C79.9097 47.027 79.9097 49.5644 79.9097 52.1018L79.9097 52.7544L79.4321 53.1993C76.4987 55.9321 73.5653 58.6649 70.6319 61.3978L70.1999 61.8002H69.6094C66.9242 61.8002 64.239 61.8002 61.5538 61.8002C61.0243 61.8002 60.4949 61.8002 59.9655 61.8002Z" fill="#9EC0BE"/>
<path d="M59.8784 68.945C59.8784 67.945 59.8784 66.945 59.8784 65.945C59.2294 65.945 58.5805 65.945 57.9315 65.945C54.9565 65.945 51.9815 65.945 49.0066 65.945L50.0683 66.3854C45.8189 62.1273 41.5694 57.8691 37.32 53.6109L37.7583 54.6705C37.7583 52.2096 37.7583 49.7487 37.7583 47.2878C37.7583 47.2511 37.7578 47.2143 37.757 47.1776L37.318 48.2373C37.4513 48.0975 37.576 47.9492 37.6922 47.7924C38.0829 47.2652 38.3771 46.6417 38.5749 45.9217C38.2213 45.5681 37.8678 45.2146 37.5142 44.861C36.7942 45.0588 36.1706 45.353 35.6435 45.7436C35.4866 45.8598 35.3383 45.9846 35.1985 46.1178L34.7457 46.5928L34.7596 47.1776C34.7587 47.2143 34.7583 47.2511 34.7583 47.2878C34.7583 49.7487 34.7583 52.2096 34.7583 54.6705L34.7583 55.2909L35.1965 55.73C39.4459 59.9882 43.6954 64.2464 47.9448 68.5046L48.3843 68.945H49.0066C51.9815 68.945 54.9565 68.945 57.9315 68.945C58.5805 68.945 59.2294 68.945 59.8784 68.945Z" fill="#9EC0BE"/>
<path d="M59.9658 68.945C59.9658 67.945 59.9658 66.945 59.9658 65.945C60.6148 65.945 61.2638 65.945 61.9128 65.945C64.8877 65.945 67.8627 65.945 70.8377 65.945L69.7759 66.3854C74.0254 62.1273 78.2748 57.8691 82.5242 53.6109L82.086 54.6705C82.086 52.2096 82.086 49.7487 82.086 47.2878C82.086 47.2511 82.0864 47.2143 82.0873 47.1776L82.5262 48.2373C82.3929 48.0975 82.2682 47.9492 82.152 47.7924C81.7614 47.2652 81.4672 46.6417 81.2694 45.9217C81.6229 45.5681 81.9765 45.2146 82.33 44.861C83.05 45.0588 83.6736 45.353 84.2008 45.7436C84.3576 45.8598 84.5059 45.9846 84.6457 46.1178L85.0986 46.5928L85.0846 47.1776C85.0855 47.2143 85.086 47.2511 85.086 47.2878C85.086 49.7487 85.086 52.2096 85.086 54.6705L85.086 55.2909L84.6477 55.73C80.3983 59.9882 76.1489 64.2464 71.8994 68.5046L71.4599 68.945H70.8377C67.8627 68.945 64.8877 68.945 61.9128 68.945C61.2638 68.945 60.6148 68.945 59.9658 68.945Z" fill="#9EC0BE"/>
<path d="M59.8774 49.2963C59.8774 48.2963 59.8774 47.2963 59.8774 46.2963C59.5869 46.2963 59.2963 46.2963 59.0058 46.2963C58.0516 46.2963 57.0974 46.2963 56.1432 46.2963L56.8773 46.4883C55.7404 45.8502 54.6035 45.2121 53.4666 44.574L54.2324 45.8821C54.2324 43.7138 54.2324 41.5456 54.2324 39.3774C54.2324 39.3774 54.2324 39.3774 54.2324 39.3774L53.7931 40.438C54.3613 39.8698 54.8341 39.2063 55.2116 38.4474C55.3481 38.173 55.4721 37.8861 55.5836 37.5868C55.2301 37.2333 54.8765 36.8797 54.523 36.5261C54.2237 36.6377 53.9368 36.7617 53.6624 36.8982C52.9035 37.2757 52.24 37.7485 51.6718 38.3167L51.2324 38.756L51.2324 39.3774C51.2324 39.3774 51.2324 39.3774 51.2324 39.3774C51.2324 41.5456 51.2324 43.7138 51.2324 45.8821V46.7603L51.9983 47.1901C53.1352 47.8282 54.2721 48.4663 55.409 49.1044L55.751 49.2963H56.1432C57.0974 49.2963 58.0516 49.2963 59.0058 49.2963C59.2963 49.2963 59.5869 49.2963 59.8774 49.2963Z" fill="#9EC0BE"/>
<path d="M59.9663 49.2963C59.9663 48.2963 59.9663 47.2963 59.9663 46.2963C60.2569 46.2963 60.5474 46.2963 60.838 46.2963C61.7922 46.2963 62.7464 46.2963 63.7006 46.2963L62.9664 46.4883C64.1033 45.8502 65.2403 45.2121 66.3772 44.574L65.6113 45.8821C65.6113 43.7138 65.6113 41.5456 65.6113 39.3774C65.6113 39.3774 65.6113 39.3774 65.6113 39.3774L66.0507 40.438C65.4825 39.8698 65.0097 39.2063 64.6322 38.4474C64.4957 38.173 64.3717 37.8861 64.2601 37.5868C64.6137 37.2333 64.9672 36.8797 65.3208 36.5261C65.6201 36.6377 65.907 36.7617 66.1814 36.8982C66.9403 37.2757 67.6038 37.7485 68.172 38.3167L68.6113 38.756L68.6113 39.3774C68.6113 39.3774 68.6113 39.3774 68.6113 39.3774C68.6113 41.5456 68.6113 43.7138 68.6113 45.8821V46.7603L67.8455 47.1901C66.7086 47.8282 65.5716 48.4663 64.4347 49.1044L64.0927 49.2963H63.7006C62.7464 49.2963 61.7922 49.2963 60.838 49.2963C60.5474 49.2963 60.2569 49.2963 59.9663 49.2963Z" fill="#9EC0BE"/>
<path d="M59.6771 83.2327V89.2613L65.7057 94.3967L59.6771 100.425L24.6221 80.1863V40.3627L59.6771 20.1237L94.7322 40.3627V80.1863L77.5396 97.3789" stroke="#9EC0BE" stroke-width="3"/>
<path d="M77.2674 99.5284C77.9954 98.8428 78.7234 98.1572 79.4513 97.4716C79.3551 97.3922 79.2589 97.3128 79.1626 97.2334C77.4304 95.8043 75.6981 94.3752 73.9659 92.9462C73.8697 92.8668 73.7734 92.7874 73.6772 92.708C73.4042 92.9651 73.1312 93.2222 72.8582 93.4793C72.9317 93.5801 73.0052 93.6809 73.0787 93.7817C74.4014 95.5965 75.7242 97.4112 77.047 99.2259C77.1204 99.3268 77.1939 99.4276 77.2674 99.5284Z" fill="#9EC0BE"/>
</svg>
