<svg width="247" height="105" viewBox="0 0 247 105" fill="none" xmlns="http://www.w3.org/2000/svg">
<path d="M0 29.6965V21.7861H33.9018L68.9336 60.2081L106.225 21.7861H134.477L170.639 60.2081L206.801 21.7861H239.572V30.8265L187.59 83.9393H152.558L119.786 52.2976L87.0145 83.9393H51.9827L0 29.6965Z" fill="#9EC0BE"/>
<path d="M68.9335 47.7774L50.8525 29.6965V21.7861H87.0144V29.6965L68.9335 47.7774Z" fill="#9EC0BE"/>
<path d="M119.749 62.2459L137.83 79.1968L137.83 85.0323L101.668 85.0323L101.668 79.1968L119.749 62.2459Z" fill="#9EC0BE"/>
<path d="M170.639 47.7774L152.558 29.6965V21.7861H188.72V29.6965L170.639 47.7774Z" fill="#9EC0BE"/>
<path d="M1.882 16L0.431652 3.39577H1.91653L2.86617 12.7194C2.88919 12.9727 2.91221 13.2374 2.93523 13.5137C2.95825 13.7784 2.97552 14.0317 2.98703 14.2734C3.01005 14.5151 3.02156 14.7166 3.02156 14.8777C3.04458 14.7166 3.06185 14.5151 3.07336 14.2734C3.09638 14.0317 3.1194 13.7784 3.14242 13.5137C3.17696 13.2374 3.21149 12.9727 3.24602 12.7194L4.42011 3.39577H6.02586L7.09635 12.7194C7.13089 12.9727 7.15966 13.2374 7.18268 13.5137C7.21722 13.7784 7.24599 14.0317 7.26901 14.2734C7.30355 14.5151 7.32657 14.7166 7.33808 14.8777C7.34959 14.7166 7.3611 14.5151 7.37261 14.2734C7.39563 14.0317 7.41865 13.7784 7.44168 13.5137C7.47621 13.2374 7.50498 12.9727 7.52801 12.7194L8.51217 3.39577H9.92799L8.44311 16H6.49204L5.42155 6.50366C5.39852 6.23892 5.36975 5.97993 5.33522 5.72669C5.31219 5.47345 5.28917 5.23748 5.26615 5.01878C5.24313 4.80008 5.22586 4.62166 5.21435 4.48353C5.20284 4.62166 5.17982 4.80008 5.14529 5.01878C5.12227 5.23748 5.09925 5.47345 5.07622 5.72669C5.0532 5.97993 5.02443 6.23892 4.98989 6.50366L3.83307 16H1.882ZM13.2881 16V3.39577H20.5399V4.81159H14.8248V8.71372H19.9356V10.1123H14.8248V14.5842H20.5399V16H13.2881ZM27.5259 16V11.2864L23.7274 3.39577H25.3331L27.8367 8.57559C27.9748 8.86336 28.0842 9.11084 28.1647 9.31803C28.2453 9.51371 28.2971 9.6576 28.3201 9.74968C28.3431 9.6576 28.3949 9.51371 28.4755 9.31803C28.5676 9.11084 28.6827 8.86336 28.8208 8.57559L31.2726 3.39577H32.8784L29.0798 11.2864V16H27.5259ZM36.6702 16V3.39577H38.2241V14.5842H43.9219V16H36.6702ZM47.1094 16L50.3899 3.39577H52.4791L55.7424 16H54.1712L53.3424 12.6504H49.5266L48.6979 16H47.1094ZM49.8374 11.3382H53.0144L52.0475 7.4533C51.8633 6.71661 51.7194 6.10079 51.6158 5.60583C51.5122 5.11087 51.4489 4.78857 51.4259 4.63893C51.4029 4.78857 51.3396 5.11087 51.236 5.60583C51.1324 6.10079 50.9885 6.71086 50.8043 7.43603L49.8374 11.3382ZM59.3615 16V3.39577H61.4335L65.2838 14.1871C65.2608 13.8993 65.232 13.5482 65.1975 13.1338C65.1745 12.7079 65.1514 12.2648 65.1284 11.8043C65.1169 11.3324 65.1111 10.8892 65.1111 10.4749V3.39577H66.6133V16H64.5414L60.7083 5.20871C60.7313 5.48496 60.7543 5.83604 60.7774 6.26194C60.8004 6.67632 60.8177 7.11949 60.8292 7.59142C60.8522 8.05185 60.8637 8.49502 60.8637 8.92091V16H59.3615ZM70.9576 16V3.39577H74.2209C75.0382 3.39577 75.7403 3.55117 76.3274 3.86195C76.9259 4.17274 77.3863 4.61015 77.7086 5.17418C78.0424 5.7382 78.2094 6.40582 78.2094 7.17704V12.2015C78.2094 12.9727 78.0424 13.6461 77.7086 14.2216C77.3863 14.7856 76.9259 15.223 76.3274 15.5338C75.7403 15.8446 75.0382 16 74.2209 16H70.9576ZM72.5115 14.6187H74.2209C74.9806 14.6187 75.5734 14.4058 75.9993 13.9799C76.4367 13.554 76.6554 12.9612 76.6554 12.2015V7.17704C76.6554 6.42884 76.4367 5.8418 75.9993 5.4159C75.5734 4.99 74.9806 4.77706 74.2209 4.77706H72.5115V14.6187ZM94.9094 10.9928V9.61155H100.435V10.9928H94.9094ZM120.018 16V11.2864L116.22 3.39577H117.825L120.329 8.57559C120.467 8.86336 120.576 9.11084 120.657 9.31803C120.737 9.51371 120.789 9.6576 120.812 9.74968C120.835 9.6576 120.887 9.51371 120.968 9.31803C121.06 9.11084 121.175 8.86336 121.313 8.57559L123.765 3.39577H125.371L121.572 11.2864V16H120.018ZM132.357 16.1727C131.182 16.1727 130.285 15.8504 129.663 15.2058C129.041 14.5497 128.731 13.6633 128.731 12.5468V3.39577H130.285V12.5468C130.285 13.2374 130.452 13.7842 130.785 14.1871C131.131 14.5899 131.654 14.7914 132.357 14.7914C133.047 14.7914 133.565 14.5899 133.91 14.1871C134.256 13.7842 134.428 13.2374 134.428 12.5468V3.39577H135.982V12.5468C135.982 13.6748 135.672 14.5612 135.05 15.2058C134.44 15.8504 133.542 16.1727 132.357 16.1727ZM143.141 16V4.79432H139.688V3.3785H148.148V4.79432H144.695V16H143.141ZM151.163 16L154.444 3.39577H156.533L159.796 16H158.225L157.396 12.6504H153.58L152.752 16H151.163ZM153.891 11.3382H157.068L156.101 7.4533C155.917 6.71661 155.773 6.10079 155.67 5.60583C155.566 5.11087 155.503 4.78857 155.48 4.63893C155.457 4.78857 155.393 5.11087 155.29 5.60583C155.186 6.10079 155.042 6.71086 154.858 7.43603L153.891 11.3382ZM163.415 16V3.39577H165.487L169.337 14.1871C169.314 13.8993 169.286 13.5482 169.251 13.1338C169.228 12.7079 169.205 12.2648 169.182 11.8043C169.171 11.3324 169.165 10.8892 169.165 10.4749V3.39577H170.667V16H168.595L164.762 5.20871C164.785 5.48496 164.808 5.83604 164.831 6.26194C164.854 6.67632 164.871 7.11949 164.883 7.59142C164.906 8.05185 164.917 8.49502 164.917 8.92091V16H163.415ZM175.236 16V14.5842H177.808V4.81159H175.236V3.39577H181.97V4.81159H179.397V14.5842H181.97V16H175.236ZM201.795 16.1727C201.035 16.1727 200.373 16.0288 199.809 15.741C199.257 15.4532 198.825 15.0389 198.514 14.4979C198.215 13.9453 198.065 13.295 198.065 12.5468V6.84898C198.065 6.08928 198.215 5.43892 198.514 4.89792C198.825 4.35691 199.257 3.94253 199.809 3.65476C200.373 3.36699 201.035 3.22311 201.795 3.22311C202.554 3.22311 203.211 3.37275 203.763 3.67203C204.316 3.9598 204.741 4.37418 205.041 4.91518C205.34 5.45619 205.49 6.10079 205.49 6.84898H203.936C203.936 6.13532 203.746 5.58856 203.366 5.20871C202.998 4.81734 202.474 4.62166 201.795 4.62166C201.116 4.62166 200.58 4.81159 200.189 5.19144C199.809 5.57129 199.619 6.11805 199.619 6.83172V12.5468C199.619 13.2605 199.809 13.813 200.189 14.2043C200.58 14.5842 201.116 14.7741 201.795 14.7741C202.474 14.7741 202.998 14.5842 203.366 14.2043C203.746 13.813 203.936 13.2605 203.936 12.5468H205.49C205.49 13.2835 205.34 13.9281 205.041 14.4806C204.741 15.0216 204.316 15.4417 203.763 15.741C203.211 16.0288 202.554 16.1727 201.795 16.1727ZM213.287 16.1727C212.527 16.1727 211.871 16.0288 211.319 15.741C210.778 15.4532 210.358 15.0389 210.058 14.4979C209.771 13.9453 209.627 13.295 209.627 12.5468V6.84898C209.627 6.08928 209.771 5.43892 210.058 4.89792C210.358 4.35691 210.778 3.94253 211.319 3.65476C211.871 3.36699 212.527 3.22311 213.287 3.22311C214.047 3.22311 214.697 3.36699 215.238 3.65476C215.791 3.94253 216.211 4.35691 216.499 4.89792C216.798 5.43892 216.948 6.08352 216.948 6.83172V12.5468C216.948 13.295 216.798 13.9453 216.499 14.4979C216.211 15.0389 215.791 15.4532 215.238 15.741C214.697 16.0288 214.047 16.1727 213.287 16.1727ZM213.287 14.7741C213.966 14.7741 214.484 14.5842 214.841 14.2043C215.209 13.813 215.394 13.2605 215.394 12.5468V6.84898C215.394 6.13532 215.209 5.58856 214.841 5.20871C214.484 4.81734 213.966 4.62166 213.287 4.62166C212.62 4.62166 212.102 4.81734 211.733 5.20871C211.365 5.58856 211.181 6.13532 211.181 6.84898V12.5468C211.181 13.2605 211.365 13.813 211.733 14.2043C212.102 14.5842 212.62 14.7741 213.287 14.7741ZM221.257 16V3.39577H225.159C225.908 3.39577 226.564 3.55117 227.128 3.86195C227.692 4.16123 228.129 4.58137 228.44 5.12238C228.751 5.66338 228.906 6.29647 228.906 7.02164C228.906 7.87344 228.682 8.60437 228.233 9.21444C227.795 9.8245 227.197 10.2446 226.437 10.4749L229.079 16H227.249L224.831 10.6475H222.811V16H221.257ZM222.811 9.24897H225.159C225.804 9.24897 226.322 9.04753 226.713 8.64465C227.105 8.23027 227.3 7.68927 227.3 7.02164C227.3 6.34251 227.105 5.80151 226.713 5.39863C226.322 4.99576 225.804 4.79432 225.159 4.79432H222.811V9.24897ZM232.819 16V3.39577H236.876C237.659 3.39577 238.338 3.55117 238.914 3.86195C239.489 4.16123 239.933 4.58713 240.243 5.13964C240.566 5.69216 240.727 6.34827 240.727 7.10797C240.727 7.85617 240.566 8.51228 240.243 9.07631C239.933 9.62882 239.489 10.0605 238.914 10.3713C238.338 10.6705 237.659 10.8202 236.876 10.8202H234.373V16H232.819ZM234.373 9.42163H236.876C237.556 9.42163 238.097 9.21444 238.499 8.80005C238.914 8.37415 239.121 7.81013 239.121 7.10797C239.121 6.39431 238.914 5.83029 238.499 5.4159C238.097 5.00151 237.556 4.79432 236.876 4.79432H234.373V9.42163Z" fill="#9EC0BE"/>
<path d="M3.68407 96.6772L5.25433 92.9207H6.22064L5.25433 96.6772H3.68407ZM0.905919 96.6772L2.47618 92.9207H3.44249L2.47618 96.6772H0.905919ZM11.5065 102.294V93.4763H14.0068C14.8121 93.4763 15.4402 93.6777 15.8911 94.0803C16.3501 94.4829 16.5796 95.0426 16.5796 95.7593C16.5796 96.1619 16.4951 96.5122 16.326 96.8101C16.1569 97.1081 15.9153 97.3376 15.6012 97.4986C15.2952 97.6597 14.9248 97.7362 14.49 97.7281V97.5469C14.957 97.5389 15.3597 97.6275 15.6979 97.8127C16.0441 97.9979 16.3099 98.2636 16.4951 98.6099C16.6883 98.9561 16.785 99.3668 16.785 99.8419C16.785 100.341 16.6803 100.776 16.4709 101.146C16.2616 101.517 15.9636 101.803 15.5771 102.004C15.1906 102.197 14.7275 102.294 14.188 102.294H11.5065ZM12.5694 101.316H14.0672C14.5745 101.316 14.9731 101.183 15.263 100.917C15.561 100.643 15.7099 100.273 15.7099 99.8057C15.7099 99.3225 15.561 98.932 15.263 98.634C14.9731 98.328 14.5745 98.175 14.0672 98.175H12.5694V101.316ZM12.5694 97.2329H13.9947C14.4618 97.2329 14.8282 97.1081 15.0939 96.8584C15.3677 96.6088 15.5046 96.2706 15.5046 95.8438C15.5046 95.417 15.3717 95.0788 15.106 94.8292C14.8403 94.5795 14.4739 94.4547 14.0068 94.4547H12.5694V97.2329ZM24.39 102.415C23.5686 102.415 22.9405 102.189 22.5057 101.738C22.0708 101.279 21.8534 100.659 21.8534 99.8782V93.4763H22.9405V99.8782C22.9405 100.361 23.0573 100.744 23.2908 101.026C23.5324 101.308 23.8988 101.448 24.39 101.448C24.8731 101.448 25.2355 101.308 25.4771 101.026C25.7187 100.744 25.8394 100.361 25.8394 99.8782V93.4763H26.9265V99.8782C26.9265 100.667 26.7091 101.287 26.2743 101.738C25.8475 102.189 25.2194 102.415 24.39 102.415ZM32.4177 102.294V101.303H34.2175V94.4668H32.4177V93.4763H37.1285V94.4668H35.3287V101.303H37.1285V102.294H32.4177ZM42.9217 102.294V93.4763H44.0088V101.303H47.9948V102.294H42.9217ZM53.027 102.294V93.4763H55.3099C55.8817 93.4763 56.3729 93.585 56.7835 93.8025C57.2023 94.0199 57.5244 94.3259 57.7499 94.7205C57.9834 95.115 58.1001 95.5821 58.1001 96.1216V99.6366C58.1001 100.176 57.9834 100.647 57.7499 101.05C57.5244 101.444 57.2023 101.75 56.7835 101.968C56.3729 102.185 55.8817 102.294 55.3099 102.294H53.027ZM54.1141 101.328H55.3099C55.8414 101.328 56.2561 101.179 56.554 100.881C56.86 100.583 57.013 100.168 57.013 99.6366V96.1216C57.013 95.5982 56.86 95.1875 56.554 94.8896C56.2561 94.5916 55.8414 94.4427 55.3099 94.4427H54.1141V101.328ZM63.5672 102.294V101.303H65.3669V94.4668H63.5672V93.4763H68.278V94.4668H66.4782V101.303H68.278V102.294H63.5672ZM73.7691 102.294V93.4763H75.2186L77.9122 101.026C77.8961 100.824 77.876 100.579 77.8518 100.289C77.8357 99.9909 77.8196 99.6809 77.8035 99.3588C77.7954 99.0286 77.7914 98.7186 77.7914 98.4287V93.4763H78.8423V102.294H77.3928L74.7113 94.7446C74.7274 94.9379 74.7435 95.1835 74.7596 95.4814C74.7757 95.7713 74.7878 96.0814 74.7958 96.4115C74.812 96.7336 74.82 97.0436 74.82 97.3416V102.294H73.7691ZM86.7372 102.415C86.2057 102.415 85.7427 102.314 85.3481 102.113C84.9616 101.911 84.6596 101.622 84.4422 101.243C84.2328 100.857 84.1281 100.402 84.1281 99.8782V95.8921C84.1281 95.3606 84.2328 94.9057 84.4422 94.5272C84.6596 94.1487 84.9616 93.8588 85.3481 93.6575C85.7427 93.4562 86.2057 93.3555 86.7372 93.3555C87.2686 93.3555 87.7276 93.4602 88.1142 93.6696C88.5007 93.8709 88.7986 94.1608 89.008 94.5393C89.2174 94.9178 89.3221 95.3687 89.3221 95.8921H88.235C88.235 95.3929 88.1021 95.0104 87.8364 94.7446C87.5787 94.4708 87.2123 94.3339 86.7372 94.3339C86.2621 94.3339 85.8876 94.4668 85.6138 94.7325C85.3481 94.9983 85.2152 95.3808 85.2152 95.88V99.8782C85.2152 100.377 85.3481 100.764 85.6138 101.038C85.8876 101.312 86.2621 101.448 86.7372 101.448C87.2123 101.448 87.5787 101.312 87.8364 101.038C88.1021 100.764 88.235 100.377 88.235 99.8782V98.7911H86.4473V97.8006H89.3221V99.8782C89.3221 100.394 89.2174 100.844 89.008 101.231C88.7986 101.609 88.5007 101.903 88.1142 102.113C87.7276 102.314 87.2686 102.415 86.7372 102.415ZM104.955 102.294V93.4763H107.455C108.26 93.4763 108.889 93.6777 109.339 94.0803C109.798 94.4829 110.028 95.0426 110.028 95.7593C110.028 96.1619 109.943 96.5122 109.774 96.8101C109.605 97.1081 109.364 97.3376 109.05 97.4986C108.744 97.6597 108.373 97.7362 107.938 97.7281V97.5469C108.405 97.5389 108.808 97.6275 109.146 97.8127C109.492 97.9979 109.758 98.2636 109.943 98.6099C110.137 98.9561 110.233 99.3668 110.233 99.8419C110.233 100.341 110.129 100.776 109.919 101.146C109.71 101.517 109.412 101.803 109.025 102.004C108.639 102.197 108.176 102.294 107.636 102.294H104.955ZM106.018 101.316H107.516C108.023 101.316 108.421 101.183 108.711 100.917C109.009 100.643 109.158 100.273 109.158 99.8057C109.158 99.3225 109.009 98.932 108.711 98.634C108.421 98.328 108.023 98.175 107.516 98.175H106.018V101.316ZM106.018 97.2329H107.443C107.91 97.2329 108.277 97.1081 108.542 96.8584C108.816 96.6088 108.953 96.2706 108.953 95.8438C108.953 95.417 108.82 95.0788 108.554 94.8292C108.289 94.5795 107.922 94.4547 107.455 94.4547H106.018V97.2329ZM115.423 102.294V93.4763H120.496V94.4668H116.498V97.1966H120.073V98.175H116.498V101.303H120.496V102.294H115.423ZM127.678 102.294V94.4547H125.262V93.4643H131.181V94.4547H128.765V102.294H127.678ZM138.061 102.294V94.4547H135.645V93.4643H141.564V94.4547H139.148V102.294H138.061ZM146.572 102.294V93.4763H151.645V94.4668H147.647V97.1966H151.222V98.175H147.647V101.303H151.645V102.294H146.572ZM156.858 102.294V93.4763H159.588C160.112 93.4763 160.571 93.585 160.965 93.8025C161.36 94.0118 161.666 94.3058 161.883 94.6842C162.101 95.0627 162.209 95.5056 162.209 96.0129C162.209 96.6088 162.052 97.1201 161.738 97.5469C161.432 97.9737 161.014 98.2676 160.482 98.4287L162.33 102.294H161.05L159.359 98.5495H157.946V102.294H156.858ZM157.946 97.5711H159.588C160.039 97.5711 160.402 97.4302 160.675 97.1483C160.949 96.8584 161.086 96.48 161.086 96.0129C161.086 95.5378 160.949 95.1593 160.675 94.8775C160.402 94.5956 160.039 94.4547 159.588 94.4547H157.946V97.5711ZM177.83 102.294L176.815 93.4763H177.854L178.519 99.999C178.535 100.176 178.551 100.361 178.567 100.555C178.583 100.74 178.595 100.917 178.603 101.086C178.619 101.255 178.627 101.396 178.627 101.509C178.643 101.396 178.656 101.255 178.664 101.086C178.68 100.917 178.696 100.74 178.712 100.555C178.736 100.361 178.76 100.176 178.784 99.999L179.606 93.4763H180.729L181.478 99.999C181.502 100.176 181.522 100.361 181.538 100.555C181.563 100.74 181.583 100.917 181.599 101.086C181.623 101.255 181.639 101.396 181.647 101.509C181.655 101.396 181.663 101.255 181.671 101.086C181.687 100.917 181.703 100.74 181.72 100.555C181.744 100.361 181.764 100.176 181.78 99.999L182.468 93.4763H183.459L182.42 102.294H181.055L180.306 95.6505C180.29 95.4653 180.27 95.2841 180.246 95.107C180.23 94.9298 180.214 94.7648 180.198 94.6118C180.181 94.4588 180.169 94.3339 180.161 94.2373C180.153 94.3339 180.137 94.4588 180.113 94.6118C180.097 94.7648 180.081 94.9298 180.065 95.107C180.049 95.2841 180.028 95.4653 180.004 95.6505L179.195 102.294H177.83ZM190.52 102.415C189.989 102.415 189.53 102.314 189.143 102.113C188.765 101.911 188.471 101.622 188.262 101.243C188.06 100.857 187.96 100.402 187.96 99.8782V95.8921C187.96 95.3606 188.06 94.9057 188.262 94.5272C188.471 94.1487 188.765 93.8588 189.143 93.6575C189.53 93.4562 189.989 93.3555 190.52 93.3555C191.052 93.3555 191.507 93.4562 191.885 93.6575C192.272 93.8588 192.566 94.1487 192.767 94.5272C192.976 94.9057 193.081 95.3566 193.081 95.88V99.8782C193.081 100.402 192.976 100.857 192.767 101.243C192.566 101.622 192.272 101.911 191.885 102.113C191.507 102.314 191.052 102.415 190.52 102.415ZM190.52 101.436C190.995 101.436 191.358 101.303 191.607 101.038C191.865 100.764 191.994 100.377 191.994 99.8782V95.8921C191.994 95.3929 191.865 95.0104 191.607 94.7446C191.358 94.4708 190.995 94.3339 190.52 94.3339C190.053 94.3339 189.691 94.4708 189.433 94.7446C189.176 95.0104 189.047 95.3929 189.047 95.8921V99.8782C189.047 100.377 189.176 100.764 189.433 101.038C189.691 101.303 190.053 101.436 190.52 101.436ZM198.391 102.294V93.4763H201.121C201.644 93.4763 202.103 93.585 202.498 93.8025C202.892 94.0118 203.198 94.3058 203.416 94.6842C203.633 95.0627 203.742 95.5056 203.742 96.0129C203.742 96.6088 203.585 97.1201 203.271 97.5469C202.965 97.9737 202.546 98.2676 202.015 98.4287L203.863 102.294H202.582L200.891 98.5495H199.478V102.294H198.391ZM199.478 97.5711H201.121C201.572 97.5711 201.934 97.4302 202.208 97.1483C202.482 96.8584 202.619 96.48 202.619 96.0129C202.619 95.5378 202.482 95.1593 202.208 94.8775C201.934 94.5956 201.572 94.4547 201.121 94.4547H199.478V97.5711ZM209.052 102.294V93.4763H210.139V101.303H214.125V102.294H209.052ZM219.157 102.294V93.4763H221.44C222.012 93.4763 222.503 93.585 222.914 93.8025C223.333 94.0199 223.655 94.3259 223.88 94.7205C224.114 95.115 224.231 95.5821 224.231 96.1216V99.6366C224.231 100.176 224.114 100.647 223.88 101.05C223.655 101.444 223.333 101.75 222.914 101.968C222.503 102.185 222.012 102.294 221.44 102.294H219.157ZM220.244 101.328H221.44C221.972 101.328 222.386 101.179 222.684 100.881C222.99 100.583 223.143 100.168 223.143 99.6366V96.1216C223.143 95.5982 222.99 95.1875 222.684 94.8896C222.386 94.5916 221.972 94.4427 221.44 94.4427H220.244V101.328ZM232.101 102.415C231.521 102.415 231.022 102.318 230.603 102.125C230.193 101.932 229.875 101.654 229.649 101.291C229.424 100.929 229.307 100.498 229.299 99.999H230.386C230.386 100.442 230.535 100.792 230.833 101.05C231.139 101.308 231.562 101.436 232.101 101.436C232.609 101.436 233.003 101.312 233.285 101.062C233.575 100.812 233.72 100.466 233.72 100.023C233.72 99.6688 233.623 99.3588 233.43 99.093C233.245 98.8273 232.975 98.6421 232.621 98.5374L231.425 98.163C230.821 97.9777 230.354 97.6677 230.024 97.2329C229.702 96.798 229.541 96.2867 229.541 95.6989C229.541 95.2238 229.645 94.8131 229.855 94.4668C230.072 94.1125 230.374 93.8387 230.76 93.6454C231.147 93.4441 231.602 93.3435 232.125 93.3435C232.898 93.3435 233.519 93.5609 233.986 93.9957C234.453 94.4225 234.69 94.9943 234.698 95.7109H233.611C233.611 95.2761 233.478 94.9379 233.213 94.6963C232.955 94.4467 232.588 94.3219 232.113 94.3219C231.646 94.3219 231.28 94.4346 231.014 94.6601C230.756 94.8855 230.628 95.1996 230.628 95.6022C230.628 95.9646 230.724 96.2786 230.918 96.5444C231.111 96.8101 231.389 96.9994 231.751 97.1121L232.959 97.4986C233.547 97.6838 234.002 97.9979 234.324 98.4408C234.646 98.8837 234.807 99.4031 234.807 99.999C234.807 100.482 234.694 100.905 234.469 101.267C234.243 101.63 233.925 101.911 233.514 102.113C233.112 102.314 232.641 102.415 232.101 102.415ZM242.617 96.6772L243.584 92.9207H245.154L243.584 96.6772H242.617ZM239.839 96.6772L240.805 92.9207H242.376L240.805 96.6772H239.839Z" fill="#9EC0BE"/>
</svg>
