<svg width="120" height="120" viewBox="0 0 120 120" fill="none" xmlns="http://www.w3.org/2000/svg">
<path d="M23.2213 86.7319L20.4477 83.9583L22.2045 65.1851L50.9919 36.3976L71.7844 32.6216L84.2599 45.0971L76.167 62.3645L62.2423 66.0956L54.7676 73.7469L32.7618 96.2724L29.2315 92.7422L36.4486 85.5251" stroke="#9EC0BE" stroke-width="3"/>
<path d="M78.5955 56.4811L67.3419 45.2275L55.7619 48.3303L35.8397 68.253L26.7551 69.1199L22.7739 65.1393" stroke="#9EC0BE" stroke-width="3"/>
<path d="M23.5325 87.1185L30.1455 80.5056" stroke="#9EC0BE" stroke-width="3"/>
<path d="M23.5167 84.8515C23.0215 85.7203 22.5263 86.5891 22.0312 87.4579C22.1059 87.4824 22.1805 87.507 22.2552 87.5316C23.5993 87.9739 24.9435 88.4163 26.2876 88.8586C26.3623 88.8832 26.437 88.9078 26.5116 88.9323C26.6973 88.6065 26.883 88.2807 27.0687 87.9549C27.0095 87.9032 26.9503 87.8515 26.8911 87.7998C25.8255 86.8687 24.7599 85.9377 23.6943 85.0066C23.6351 84.9549 23.5759 84.9032 23.5167 84.8515Z" fill="#9EC0BE"/>
<path d="M34.2173 86.9632C34.7173 86.0972 35.2173 85.2312 35.7173 84.3651C35.6552 84.3473 35.5931 84.3295 35.531 84.3117C34.4135 83.9913 33.296 83.6709 32.1785 83.3505C32.1165 83.3327 32.0544 83.3149 31.9923 83.2971C31.8048 83.6218 31.6173 83.9466 31.4298 84.2713C31.4762 84.3162 31.5227 84.3611 31.5692 84.4059C32.4054 85.2135 33.2417 86.0211 34.0779 86.8286C34.1244 86.8735 34.1708 86.9184 34.2173 86.9632Z" fill="#9EC0BE"/>
<path d="M28.2959 82.857C27.7959 83.723 27.2959 84.589 26.7959 85.455C26.841 85.4631 26.8861 85.4711 26.9313 85.4791C27.7435 85.6233 28.5557 85.7674 29.3679 85.9116C29.4131 85.9196 29.4582 85.9276 29.5033 85.9356C29.6908 85.6109 29.8783 85.2861 30.0658 84.9614C30.0363 84.9263 30.0068 84.8912 29.9773 84.8561C29.4463 84.2248 28.9154 83.5935 28.3844 82.9622C28.3549 82.9271 28.3254 82.892 28.2959 82.857Z" fill="#9EC0BE"/>
<path d="M31.8546 90.7214C32.3789 89.8698 32.9033 89.0183 33.4276 88.1668C33.3647 88.1464 33.3017 88.126 33.2388 88.1056C32.106 87.7383 30.9731 87.3711 29.8403 87.0038C29.7774 86.9834 29.7144 86.963 29.6515 86.9426C29.4549 87.2619 29.2583 87.5813 29.0616 87.9006C29.1082 87.9476 29.1547 87.9946 29.2013 88.0416C30.0392 88.8878 30.8771 89.7341 31.715 90.5803C31.7615 90.6273 31.8081 90.6744 31.8546 90.7214Z" fill="#9EC0BE"/>
<path d="M30.2404 78.3545C29.6485 79.1605 29.0566 79.9665 28.4647 80.7726C28.5347 80.8045 28.6046 80.8365 28.6746 80.8685C29.9338 81.4442 31.193 82.0199 32.4521 82.5956C32.5221 82.6276 32.592 82.6596 32.662 82.6916C32.884 82.3893 33.1059 82.087 33.3279 81.7848C33.2764 81.7276 33.2249 81.6704 33.1735 81.6133C32.2472 80.5842 31.321 79.5551 30.3947 78.526C30.3433 78.4688 30.2918 78.4116 30.2404 78.3545Z" fill="#9EC0BE"/>
<path d="M28.5301 93.9878C29.0784 93.1515 29.6267 92.3153 30.175 91.479C30.113 91.457 30.051 91.4351 29.989 91.4131C28.8732 91.0178 27.7573 90.6224 26.6414 90.2271C26.5794 90.2051 26.5174 90.1832 26.4554 90.1612C26.2498 90.4748 26.0442 90.7884 25.8386 91.102C25.8834 91.1501 25.9283 91.1982 25.9732 91.2463C26.7806 92.112 27.588 92.9778 28.3955 93.8435C28.4403 93.8916 28.4852 93.9397 28.5301 93.9878Z" fill="#9EC0BE"/>
<path d="M32.5353 76.9347L39.1129 83.5167" stroke="#9EC0BE" stroke-width="3"/>
<path d="M41.6702 86.7239L41.6702 77.0935L69.9949 48.7688" stroke="#9EC0BE" stroke-width="3"/>
<path d="M56.3671 49.0612C55.66 49.7683 54.9529 50.4754 54.2458 51.1825C54.3214 51.236 54.397 51.2895 54.4726 51.343C55.8334 52.3061 57.1941 53.2691 58.5549 54.2321C58.6305 54.2856 58.7061 54.3391 58.7817 54.3926C59.0469 54.1275 59.312 53.8623 59.5772 53.5971C59.5237 53.5215 59.4702 53.4459 59.4167 53.3703C58.4537 52.0096 57.4906 50.6488 56.5276 49.288C56.4741 49.2124 56.4206 49.1368 56.3671 49.0612Z" fill="#9EC0BE"/>
<path d="M53.031 52.3999C52.3238 53.107 51.6167 53.8141 50.9096 54.5212C50.9741 54.5636 51.0386 54.6059 51.103 54.6483C52.2635 55.411 53.4239 56.1737 54.5844 56.9364C54.6489 56.9788 54.7133 57.0211 54.7778 57.0635C55.043 56.7984 55.3081 56.5332 55.5733 56.268C55.5309 56.2036 55.4885 56.1391 55.4462 56.0746C54.6835 54.9142 53.9208 53.7537 53.1581 52.5933C53.1157 52.5288 53.0733 52.4643 53.031 52.3999Z" fill="#9EC0BE"/>
<path d="M49.5566 55.8723C48.8495 56.5794 48.1424 57.2865 47.4353 57.9936C47.4909 58.0271 47.5464 58.0606 47.602 58.094C48.6022 58.6965 49.6024 59.2989 50.6025 59.9013C50.6581 59.9348 50.7137 59.9683 50.7692 60.0018C51.0344 59.7366 51.2996 59.4714 51.5647 59.2063C51.5313 59.1507 51.4978 59.0951 51.4643 59.0396C50.8619 58.0394 50.2595 57.0392 49.657 56.039C49.6236 55.9834 49.5901 55.9279 49.5566 55.8723Z" fill="#9EC0BE"/>
<path d="M46.085 59.3448C45.3779 60.0519 44.6708 60.759 43.9637 61.4661C44.0059 61.4862 44.0481 61.5063 44.0903 61.5264C44.8501 61.8885 45.6099 62.2505 46.3697 62.6126C46.4119 62.6327 46.4541 62.6528 46.4963 62.6729C46.7615 62.4077 47.0266 62.1426 47.2918 61.8774C47.2717 61.8352 47.2516 61.793 47.2314 61.7508C46.8694 60.991 46.5074 60.2312 46.1453 59.4714C46.1252 59.4292 46.1051 59.387 46.085 59.3448Z" fill="#9EC0BE"/>
<path d="M42.6128 62.817C41.9057 63.5241 41.1986 64.2313 40.4915 64.9384C40.5381 64.9629 40.5848 64.9875 40.6315 65.0121C41.4714 65.4542 42.3113 65.8964 43.1512 66.3386C43.1979 66.3631 43.2446 66.3877 43.2912 66.4123C43.5564 66.1471 43.8215 65.8819 44.0867 65.6168C44.0621 65.5701 44.0376 65.5235 44.013 65.4768C43.5708 64.6369 43.1287 63.7969 42.6865 62.957C42.6619 62.9104 42.6374 62.8637 42.6128 62.817Z" fill="#9EC0BE"/>
<path d="M63.7349 66.8569V77.3242L75.3038 73.6758L81.8942 67.474L84.0028 70.2299L78.0084 79.9353V84.9296V89.9911L88.1512 85.6771V90.0202L81.8825 93.6394L86.8735 102.284H75.3038L69.2064 94.793H61.7643L54.4096 102.284M55.7478 72.7381V87.511L40.9746 102.284" stroke="#9EC0BE" stroke-width="3"/>
<path d="M98.2914 82.9404V39.0889L59.7331 16.3306L34.1992 31.0725" stroke="#9EC0BE" stroke-width="3"/>
<path d="M54.9874 18.3733C54.7285 19.3392 54.4697 20.3051 54.2109 21.2711C54.3097 21.2814 54.4086 21.2917 54.5075 21.302C56.2869 21.4877 58.0664 21.6733 59.8459 21.859C59.9448 21.8693 60.0436 21.8796 60.1425 21.8899C60.2396 21.5277 60.3366 21.1655 60.4337 20.8033C60.3429 20.7628 60.2521 20.7223 60.1614 20.6818C58.5275 19.9528 56.8936 19.2238 55.2597 18.4948C55.1689 18.4543 55.0781 18.4138 54.9874 18.3733Z" fill="#9EC0BE"/>
<path d="M66.2832 19.0298C65.2832 19.0298 64.2832 19.0297 63.2832 19.0297C63.2988 19.1327 63.3144 19.2358 63.3301 19.3388C63.6112 21.1934 63.8924 23.048 64.1736 24.9027C64.1893 25.0057 64.2049 25.1087 64.2205 25.2118C64.5955 25.2118 64.9705 25.2118 65.3455 25.2118C65.3611 25.1088 65.3768 25.0057 65.3924 24.9027C65.6737 23.0481 65.955 21.1935 66.2363 19.3389C66.2519 19.2358 66.2676 19.1328 66.2832 19.0298Z" fill="#9EC0BE"/>
<path d="M84.4267 29.8528C83.4267 29.8527 82.4267 29.8527 81.4267 29.8527C81.4424 29.9557 81.458 30.0588 81.4736 30.1618C81.7548 32.0164 82.036 33.871 82.3172 35.7257C82.3328 35.8287 82.3484 35.9317 82.3641 36.0348C82.7391 36.0348 83.1141 36.0348 83.4891 36.0348C83.5047 35.9318 83.5203 35.8287 83.5359 35.7257C83.8172 33.8711 84.0986 32.0165 84.3799 30.1619C84.3955 30.0588 84.4111 29.9558 84.4267 29.8528Z" fill="#9EC0BE"/>
<path d="M93.3081 35.4037C92.3081 35.4037 91.3081 35.4036 90.3081 35.4036C90.3237 35.5066 90.3393 35.6097 90.355 35.7127C90.6361 37.5673 90.9173 39.4219 91.1985 41.2766C91.2142 41.3796 91.2298 41.4826 91.2454 41.5857C91.6204 41.5857 91.9954 41.5857 92.3704 41.5857C92.386 41.4827 92.4017 41.3796 92.4173 41.2766C92.6986 39.422 92.9799 37.5674 93.2612 35.7128C93.2768 35.6098 93.2925 35.5067 93.3081 35.4037Z" fill="#9EC0BE"/>
<path d="M75.5455 24.3019C74.5455 24.302 73.5455 24.302 72.5455 24.302C72.5611 24.3819 72.5767 24.4619 72.5924 24.5418C72.8737 25.9804 73.155 27.419 73.4363 28.8577C73.4519 28.9376 73.4675 29.0175 73.4831 29.0974C73.8581 29.0974 74.2331 29.0974 74.6081 29.0974C74.6238 29.0175 74.6394 28.9375 74.655 28.8576C74.9362 27.419 75.2174 25.9803 75.4986 24.5417C75.5142 24.4618 75.5299 24.3819 75.5455 24.3019Z" fill="#9EC0BE"/>
<path d="M47.9092 22.2257C47.6504 23.1916 47.3916 24.1576 47.1328 25.1235C47.2571 25.1406 47.3814 25.1577 47.5057 25.1749C49.7433 25.4833 51.9809 25.7917 54.2185 26.1001C54.3428 26.1172 54.4672 26.1344 54.5915 26.1515C54.6885 25.7893 54.7856 25.427 54.8826 25.0648C54.7664 25.0175 54.6502 24.9702 54.534 24.9229C52.4419 24.0711 50.3499 23.2194 48.2579 22.3677C48.1417 22.3203 48.0254 22.273 47.9092 22.2257Z" fill="#9EC0BE"/>
<path d="M55.7961 19.4941C54.8302 19.2353 53.8643 18.9765 52.8984 18.7176C52.9407 18.6199 52.9831 18.5222 53.0254 18.4244C53.788 16.6655 54.5505 14.9065 55.3131 13.1476C55.3554 13.0498 55.3978 12.9521 55.4402 12.8544C55.8024 12.9515 56.1646 13.0485 56.5268 13.1456C56.5146 13.2514 56.5025 13.3572 56.4903 13.463C56.2711 15.3676 56.0519 17.2722 55.8326 19.1767C55.8205 19.2825 55.8083 19.3883 55.7961 19.4941Z" fill="#9EC0BE"/>
<path d="M64.1735 20.1907C64.1735 19.1907 64.1735 18.1907 64.1735 17.1907C64.3123 17.2063 64.4511 17.2219 64.5898 17.2375C67.0877 17.5188 69.5856 17.8 72.0834 18.0813C72.2222 18.0969 72.361 18.1125 72.4998 18.1282C72.4998 18.5032 72.4998 18.8782 72.4998 19.2532C72.361 19.2688 72.2222 19.2844 72.0834 19.3C69.5856 19.5813 67.0877 19.8625 64.5898 20.1438C64.4511 20.1594 64.3123 20.175 64.1735 20.1907Z" fill="#9EC0BE"/>
<path d="M82.3171 31.0137C82.3171 30.0137 82.3171 29.0137 82.3171 28.0137C82.4559 28.0293 82.5946 28.0449 82.7334 28.0605C85.2313 28.3418 87.7291 28.623 90.227 28.9043C90.3658 28.9199 90.5045 28.9355 90.6433 28.9512C90.6433 29.3262 90.6433 29.7012 90.6433 30.0762C90.5045 30.0918 90.3658 30.1074 90.227 30.123C87.7291 30.4043 85.2313 30.6855 82.7334 30.9668C82.5946 30.9824 82.4558 30.998 82.3171 31.0137Z" fill="#9EC0BE"/>
<path d="M91.1987 36.5644C91.1987 35.5644 91.1987 34.5644 91.1987 33.5644C91.3374 33.5801 91.4762 33.5957 91.615 33.6113C94.1129 33.8926 96.6107 34.1738 99.1086 34.4551C99.2474 34.4707 99.3861 34.4863 99.5249 34.502C99.5249 34.877 99.5249 35.252 99.5249 35.627C99.3861 35.6426 99.2474 35.6582 99.1086 35.6738C96.6107 35.9551 94.1128 36.2363 91.615 36.5176C91.4762 36.5332 91.3374 36.5488 91.1987 36.5644Z" fill="#9EC0BE"/>
<path d="M72.4998 25.4629C72.4998 24.4629 72.4998 23.4629 72.4998 22.4629C72.6542 22.4785 72.8086 22.4941 72.9629 22.5098C75.7417 22.791 78.5204 23.0723 81.2991 23.3535C81.4535 23.3691 81.6078 23.3848 81.7622 23.4004C81.7622 23.7754 81.7622 24.1504 81.7622 24.5254C81.6078 24.541 81.4535 24.5566 81.2991 24.5723C78.5204 24.8535 75.7417 25.1348 72.9629 25.416C72.8086 25.4316 72.6542 25.4473 72.4998 25.4629Z" fill="#9EC0BE"/>
<path d="M42.0701 25.7178C41.8113 26.6837 41.5524 27.6496 41.2936 28.6155C41.432 28.6364 41.5703 28.6573 41.7087 28.6782C44.1993 29.0544 46.6899 29.4306 49.1805 29.8069C49.3189 29.8278 49.4573 29.8487 49.5956 29.8696C49.6927 29.5073 49.7897 29.1451 49.8868 28.7829C49.7565 28.7318 49.6262 28.6807 49.496 28.6296C47.151 27.7101 44.8059 26.7906 42.4609 25.871C42.3307 25.8199 42.2004 25.7688 42.0701 25.7178Z" fill="#9EC0BE"/>
<path d="M49.3817 23.9348C48.4158 23.676 47.4498 23.4172 46.4839 23.1584C46.5362 23.0237 46.5884 22.8889 46.6407 22.7542C47.5816 20.3291 48.5225 17.904 49.4634 15.4789C49.5157 15.3442 49.568 15.2095 49.6202 15.0748C49.9825 15.1718 50.3447 15.2689 50.7069 15.3659C50.6848 15.5087 50.6627 15.6515 50.6406 15.7944C50.2431 18.365 49.8455 20.9357 49.4479 23.5063C49.4259 23.6491 49.4038 23.7919 49.3817 23.9348Z" fill="#9EC0BE"/>
<path d="M36.5986 29.6526C35.5986 29.6526 34.5986 29.6526 33.5986 29.6526C33.6143 29.7821 33.6299 29.9116 33.6455 30.0411C33.9268 32.3725 34.208 34.7038 34.4893 37.0351C34.5049 37.1647 34.5205 37.2942 34.5361 37.4237C34.9111 37.4237 35.2861 37.4237 35.6611 37.4237C35.6768 37.2942 35.6924 37.1647 35.708 37.0351C35.9893 34.7038 36.2705 32.3725 36.5518 30.0411C36.5674 29.9116 36.583 29.7821 36.5986 29.6526Z" fill="#9EC0BE"/>
<path d="M42.8641 26.7102C41.8982 26.4514 40.9323 26.1925 39.9663 25.9337C40.0112 25.8267 40.056 25.7198 40.1009 25.6128C40.908 23.6873 41.7151 21.7618 42.5222 19.8363C42.5671 19.7294 42.6119 19.6224 42.6568 19.5154C43.019 19.6125 43.3812 19.7095 43.7434 19.8066C43.7288 19.9217 43.7141 20.0367 43.6995 20.1518C43.4357 22.2229 43.1719 24.2939 42.9081 26.365C42.8934 26.4801 42.8788 26.5951 42.8641 26.7102Z" fill="#9EC0BE"/>
</svg>
