<svg width="18" height="16" viewBox="0 0 18 16" fill="none" xmlns="http://www.w3.org/2000/svg">
<path d="M9.00098 0.5C13.7895 0.500202 17.5 3.68688 17.5 7.42871C17.4999 11.1705 13.7894 14.3572 9.00098 14.3574C7.75519 14.3574 6.57592 14.1383 5.51367 13.748L5.25977 13.6553L5.04297 13.8164C4.70179 14.0698 4.16132 14.4123 3.51367 14.7227L3.23047 14.8535C2.41826 15.211 1.47485 15.5 0.563477 15.5C0.543321 15.5 0.518864 15.4884 0.505859 15.457C0.494639 15.4297 0.499526 15.3969 0.521484 15.373L0.529297 15.3652C0.54363 15.3507 0.568566 15.3262 0.601562 15.2871L0.599609 15.2861C0.642592 15.2382 0.704855 15.1677 0.779297 15.0742L0.780273 15.0752C0.937692 14.8802 1.14467 14.5963 1.35449 14.2461L1.35547 14.2441C1.73139 13.6102 2.1022 12.7571 2.17676 11.7812L2.19238 11.5723L2.05566 11.415C1.07068 10.2809 0.501012 8.90531 0.500977 7.42871C0.500977 3.68676 4.21227 0.5 9.00098 0.5Z" stroke="#1E1E1E"/>
</svg>
