<svg width="19" height="16" viewBox="0 0 19 16" fill="none" xmlns="http://www.w3.org/2000/svg">
<path d="M10.2822 1.87598C11.3158 0.801702 12.781 0.314833 14.2168 0.563477C16.386 0.939815 18 2.89863 18 5.22363V5.43555C18 6.73384 17.5143 7.97499 16.6553 8.89746L16.4785 9.07812L10.126 15.2432C9.95392 15.4101 9.7298 15.5 9.5 15.5C9.2702 15.5 9.04608 15.4101 8.87402 15.2432L2.52148 9.07812L2.34473 8.89746C1.48574 7.97499 1 6.73384 1 5.43555V5.22363L1.00488 5.00684C1.1016 2.77781 2.68174 0.928057 4.7832 0.563477C6.219 0.314833 7.68424 0.801702 8.71777 1.87598L9.13965 2.31445L9.5 2.68848L9.86035 2.31445L10.2822 1.87598Z" stroke="#1E1E1E"/>
</svg>
